<svg width="179" height="44" xmlns="http://www.w3.org/2000/svg"><g fill="none" fill-rule="evenodd"><path d="M7.99 5.687a2.497 2.497 0 0 1-.672-1.743c0-.672.231-1.26.693-1.764.462-.504.987-.756 1.575-.756.644 0 1.183.245 1.617.735.434.49.651 1.085.651 1.785 0 .672-.231 1.253-.693 1.743-.462.49-1.001.735-1.617.735-.588 0-1.106-.245-1.554-.735zM1.144 42.71c-.56-.448-.84-1.008-.84-1.68 0-.56.175-1.029.525-1.407.35-.378.805-.567 1.365-.567.588 0 1.029.189 1.323.567.294.378.441.777.441 1.197 0 .168-.014.294-.042.378.392.168.756.252 1.092.252.644 0 1.204-.238 1.68-.714.812-.784 1.218-2.492 1.218-5.124L7.99 16.04c0-1.064.042-1.974.126-2.73l-2.982.168v-1.764c1.68 0 2.877-.098 3.591-.294.714-.196 1.267-.476 1.659-.84h1.218v21.546c0 3.752-.728 6.566-2.184 8.442-1.456 1.876-3.388 2.814-5.796 2.814-1.092 0-1.918-.224-2.478-.672zm17.295-11.403c-1.554-.91-2.779-2.212-3.675-3.906-.896-1.694-1.344-3.647-1.344-5.859 0-1.96.448-3.801 1.344-5.523a10.708 10.708 0 0 1 3.759-4.137c1.61-1.036 3.437-1.554 5.481-1.554 1.596 0 3.038.35 4.326 1.05 1.288.7 2.31 1.743 3.066 3.129.756 1.386 1.134 3.087 1.134 5.103l-14.784.252c-.028 3.36.525 5.978 1.659 7.854 1.134 1.876 2.891 2.814 5.271 2.814 1.288 0 2.611-.336 3.969-1.008 1.358-.672 2.401-1.498 3.129-2.478l1.008.84c-1.064 1.624-2.443 2.828-4.137 3.612-1.694.784-3.353 1.176-4.977 1.176-1.932 0-3.675-.455-5.229-1.365zm10.143-13.209c0-1.68-.378-3.122-1.134-4.326-.756-1.204-1.89-1.806-3.402-1.806-3.472 0-5.53 2.044-6.174 6.132h10.71zM34.39 30.74c.812 0 1.393-.203 1.743-.609.35-.406.553-.917.609-1.533.056-.616.084-1.61.084-2.982 0-.28.007-1.806.021-4.578.014-2.772.021-7.868.021-15.288 0-1.064.042-1.974.126-2.73l-2.982.168V1.424c1.652 0 2.835-.098 3.549-.294.714-.196 1.267-.476 1.659-.84h1.218v19.866h1.68l5.124-5.376c1.064-1.12 1.89-1.862 2.478-2.226l-2.856.126V11h7.644v1.26a6.786 6.786 0 0 0-3.36 1.344c-1.008.756-2.128 1.778-3.36 3.066l-3.276 3.444c.504.224.945.511 1.323.861s.805.819 1.281 1.407l2.982 3.822c.056.056.371.483.945 1.281.574.798 1.26 1.54 2.058 2.226.798.686 1.491 1.029 2.079 1.029V32h-3.822c-.672 0-1.302-.294-1.89-.882-.588-.588-1.442-1.61-2.562-3.066l-1.638-2.31a173.92 173.92 0 0 0-1.743-2.415c-.546-.742-1.001-1.281-1.365-1.617l-1.722.084v5.754c0 1.26-.056 2.212-.168 2.856l2.688-.126V32H34.39v-1.26zm22.398 11.97c-.588-.448-.882-1.078-.882-1.89 0-.532.175-1.001.525-1.407.35-.406.805-.609 1.365-.609.56 0 .973.196 1.239.588.266.392.399.798.399 1.218 0 .252-.014.448-.042.588.084.056.238.084.462.084.364 0 .735-.14 1.113-.42.378-.28.721-.686 1.029-1.218.644-1.064 1.624-3.458 2.94-7.182l-6.552-14.028c-1.176-2.52-1.918-4.452-2.226-5.796l-2.016.084V11h8.694v1.26h-.168c-1.316.084-1.974.644-1.974 1.68 0 .7.336 1.792 1.008 3.276l4.914 10.542c.84-2.38 2.044-5.894 3.612-10.542.952-2.772 1.638-4.326 2.058-4.662l-2.898.168V11h6.594v1.26c-.952.364-1.687.945-2.205 1.743-.518.798-1.085 2.037-1.701 3.717l-5.25 14.658c-1.008 2.828-1.841 4.963-2.499 6.405-.658 1.442-1.4 2.569-2.226 3.381-.826.812-1.841 1.218-3.045 1.218-.924 0-1.68-.224-2.268-.672zm19.08-11.97c.812 0 1.393-.203 1.743-.609.35-.406.56-.924.63-1.554.07-.63.105-1.617.105-2.961V5.75c0-1.064.042-1.974.126-2.73l-2.982.168V1.424c1.68 0 2.877-.098 3.591-.294.714-.196 1.267-.476 1.659-.84h1.218L82 27.548c0 1.092-.07 2.044-.21 2.856l2.646-.126V32h-8.568v-1.26zm9.924 0c.812 0 1.393-.203 1.743-.609.35-.406.56-.924.63-1.554.07-.63.105-1.617.105-2.961V5.75c0-1.064.042-1.974.126-2.73l-2.982.168V1.424c1.68 0 2.877-.098 3.591-.294.714-.196 1.267-.476 1.659-.84h1.218l.042 27.258c0 1.092-.07 2.044-.21 2.856l2.646-.126V32h-8.568v-1.26z" fill="#45454A"/><path d="M102.846 32.147c-1.092-.35-2.03-.791-2.814-1.323l.168 1.47h-1.764l-.252-7.224h1.302c.056 1.148.371 2.17.945 3.066a6.224 6.224 0 0 0 2.268 2.121 6.117 6.117 0 0 0 3.003.777c1.204 0 2.275-.287 3.213-.861.938-.574 1.407-1.393 1.407-2.457 0-.784-.231-1.442-.693-1.974a5.648 5.648 0 0 0-1.722-1.323c-.686-.35-1.645-.763-2.877-1.239-1.484-.56-2.674-1.085-3.57-1.575a7.308 7.308 0 0 1-2.31-1.995c-.644-.84-.966-1.904-.966-3.192 0-.924.224-1.848.672-2.772.448-.924 1.204-1.708 2.268-2.352 1.064-.644 2.478-.966 4.242-.966.868 0 1.757.14 2.667.42a7.42 7.42 0 0 1 2.541 1.386l-.084-1.596h1.764v7.35h-1.344c-.084-1.624-.581-3.031-1.491-4.221-.91-1.19-2.191-1.785-3.843-1.785-1.26 0-2.261.315-3.003.945-.742.63-1.113 1.379-1.113 2.247 0 .812.245 1.498.735 2.058a6.473 6.473 0 0 0 1.827 1.428c.728.392 1.708.826 2.94 1.302 1.456.588 2.632 1.134 3.528 1.638a7.439 7.439 0 0 1 2.289 1.995c.63.826.945 1.827.945 3.003 0 1.344-.343 2.478-1.029 3.402-.686.924-1.582 1.617-2.688 2.079a9.114 9.114 0 0 1-3.549.693c-1.316 0-2.52-.175-3.612-.525zm17.883-.84c-1.554-.91-2.779-2.212-3.675-3.906-.896-1.694-1.344-3.647-1.344-5.859 0-1.96.448-3.801 1.344-5.523a10.708 10.708 0 0 1 3.759-4.137c1.61-1.036 3.437-1.554 5.481-1.554 1.596 0 3.038.35 4.326 1.05 1.288.7 2.31 1.743 3.066 3.129.756 1.386 1.134 3.087 1.134 5.103l-14.784.252c-.028 3.36.525 5.978 1.659 7.854 1.134 1.876 2.891 2.814 5.271 2.814 1.288 0 2.611-.336 3.969-1.008 1.358-.672 2.401-1.498 3.129-2.478l1.008.84c-1.064 1.624-2.443 2.828-4.137 3.612-1.694.784-3.353 1.176-4.977 1.176-1.932 0-3.675-.455-5.229-1.365zm10.143-13.209c0-1.68-.378-3.122-1.134-4.326-.756-1.204-1.89-1.806-3.402-1.806-3.472 0-5.53 2.044-6.174 6.132h10.71zm6.186 12.642c.812 0 1.393-.203 1.743-.609.35-.406.56-.924.63-1.554.07-.63.105-1.617.105-2.961V16.04c0-1.176.056-2.086.168-2.73l-2.982.126v-1.722h1.302c1.064 0 1.834-.091 2.31-.273a4.137 4.137 0 0 0 1.344-.861h1.218c.112 1.092.182 2.478.21 4.158.7-1.148 1.701-2.17 3.003-3.066 1.302-.896 2.653-1.344 4.053-1.344.84 0 1.54.224 2.1.672.56.448.84 1.106.84 1.974 0 .448-.175.896-.525 1.344-.35.448-.847.672-1.491.672-.616 0-1.12-.231-1.512-.693-.392-.462-.546-1.015-.462-1.659-1.064-.028-2.135.378-3.213 1.218-1.078.84-1.995 1.96-2.751 3.36l.042 10.332c0 1.26-.056 2.212-.168 2.856l2.646-.126V32h-8.61v-1.26zm19.29-25.053a2.497 2.497 0 0 1-.672-1.743c0-.672.231-1.26.693-1.764.462-.504.987-.756 1.575-.756.644 0 1.183.245 1.617.735.434.49.651 1.085.651 1.785 0 .672-.231 1.253-.693 1.743-.462.49-1.001.735-1.617.735-.588 0-1.106-.245-1.554-.735zm-2.604 25.053c.812 0 1.393-.203 1.743-.609.35-.406.56-.924.63-1.554.07-.63.105-1.617.105-2.961V16.04c0-.812.056-1.722.168-2.73l-2.982.168v-1.764c1.652 0 2.835-.098 3.549-.294.714-.196 1.267-.476 1.659-.84h1.218v16.968c0 1.26-.056 2.212-.168 2.856l2.646-.126V32h-8.568v-1.26zm10.512 0c.812 0 1.393-.203 1.743-.609.35-.406.56-.924.63-1.554.07-.63.105-1.617.105-2.961l-.042-12.81-3.444.084V11h3.444v-.882c0-3.248.595-5.733 1.785-7.455C169.667.941 171.592.08 174.252.08c1.064 0 2.079.266 3.045.798.966.532 1.449 1.302 1.449 2.31 0 .56-.161 1.015-.483 1.365-.322.35-.763.525-1.323.525-.56 0-.987-.189-1.281-.567-.294-.378-.441-.763-.441-1.155s.07-.742.21-1.05a1.94 1.94 0 0 0-.798-.525 2.853 2.853 0 0 0-1.008-.189c-1.204 0-2.058.483-2.562 1.449-.504.966-.756 2.149-.756 3.549V11h5.67v1.638l-5.67.126.042 14.784c0 1.26-.056 2.212-.168 2.856l2.646-.126V32h-8.568v-1.26z" fill="#1C3ED3"/></g></svg>