<svg xmlns="http://www.w3.org/2000/svg" xmlns:xlink="http://www.w3.org/1999/xlink" version="1.1" x="0px" y="0px" viewBox="0 0 100 125" fill="#1c3ed3" style="enable-background:new 0 0 100 100;" xml:space="preserve"><style type="text/css">
	.st0{fill:none;stroke:#000000;stroke-width:2;stroke-linecap:round;stroke-linejoin:round;stroke-miterlimit:10;}
	.st1{fill:none;stroke:#000000;stroke-linecap:round;stroke-linejoin:round;stroke-miterlimit:10;}
	.st2{fill:none;stroke:#000000;stroke-width:2;stroke-miterlimit:10;}
</style><path d="M77.4,23.5c0.5,0,1.1-0.1,1.6-0.2c4-0.9,6.5-4.9,5.6-8.9c-0.9-4-4.9-6.5-8.9-5.6c-4,0.9-6.5,4.9-5.6,8.9  C71,21.1,74.1,23.5,77.4,23.5z M76.2,10.8c0.4-0.1,0.8-0.1,1.2-0.1c2.5,0,4.7,1.7,5.3,4.2c0.7,2.9-1.2,5.8-4.1,6.5  c-2.9,0.7-5.8-1.2-6.5-4.1C71.5,14.4,73.3,11.5,76.2,10.8z"/><path d="M88.9,26.7c-1.7-1.1-3.7-1.4-5.6-0.9c-1.9,0.4-3.6,1.6-4.6,3.3c-1.1,1.7-1.4,3.7-0.9,5.6c0.8,3.4,3.8,5.8,7.2,5.8  c0.5,0,1.1-0.1,1.6-0.2c4-0.9,6.5-4.9,5.6-8.9C91.8,29.4,90.6,27.8,88.9,26.7z M86.2,38.3c-2.9,0.7-5.8-1.2-6.5-4.1  c-0.3-1.4-0.1-2.9,0.7-4.1c0.8-1.2,2-2.1,3.4-2.4c0.4-0.1,0.8-0.1,1.2-0.1c1,0,2,0.3,2.9,0.8c1.2,0.8,2.1,2,2.4,3.4  C90.9,34.7,89.1,37.6,86.2,38.3z"/><path d="M17.3,89c0.5,0,1.1-0.1,1.6-0.2c4-0.9,6.5-4.9,5.6-8.9c-0.4-1.9-1.6-3.6-3.3-4.6c-1.7-1.1-3.7-1.4-5.6-0.9  c-4,0.9-6.5,4.9-5.6,8.9C10.9,86.7,14,89,17.3,89z M16.1,76.3c0.4-0.1,0.8-0.1,1.2-0.1c1,0,2,0.3,2.9,0.8c1.2,0.8,2.1,2,2.4,3.4  c0.7,2.9-1.2,5.8-4.1,6.5c-2.9,0.7-5.8-1.2-6.5-4.1C11.4,79.9,13.2,77,16.1,76.3z"/><path d="M57.4,32c-0.8-0.3-1.7-0.2-2.5,0.2c-0.8,0.4-1.4,1.1-1.7,1.9c-0.3,0.8-0.2,1.7,0.2,2.5s1.1,1.4,1.9,1.7  c0.3,0.1,0.7,0.2,1.1,0.2c0.5,0,1-0.1,1.4-0.3c0.8-0.4,1.4-1.1,1.7-1.9c0.3-0.8,0.2-1.7-0.2-2.5C58.9,32.9,58.2,32.3,57.4,32z   M57.5,35.5c-0.1,0.3-0.3,0.6-0.6,0.7c-0.3,0.2-0.7,0.2-1,0.1c-0.3-0.1-0.6-0.3-0.7-0.6c0,0,0,0,0,0c-0.2-0.3-0.2-0.7-0.1-1  c0.1-0.3,0.3-0.6,0.6-0.7c0.2-0.1,0.4-0.1,0.6-0.1c0.1,0,0.3,0,0.4,0.1c0.3,0.1,0.6,0.3,0.7,0.6C57.6,34.8,57.6,35.2,57.5,35.5z"/><path d="M16.1,35.2l-1.9,1c-0.5,0.2-0.7,0.8-0.5,1.3c0.2,0.4,0.5,0.6,0.9,0.6c0.1,0,0.3,0,0.4-0.1l1.9-1c0.5-0.2,0.7-0.8,0.5-1.3  C17.2,35.2,16.6,35,16.1,35.2z"/><path d="M21.3,32.7l-1.9,1c-0.5,0.2-0.7,0.8-0.5,1.3c0.2,0.4,0.5,0.6,0.9,0.6c0.1,0,0.3,0,0.4-0.1l1.9-1c0.5-0.2,0.7-0.8,0.5-1.3  C22.4,32.7,21.8,32.5,21.3,32.7z"/><path d="M26.4,30.2l-1.9,1C24,31.4,23.8,32,24,32.5c0.2,0.4,0.5,0.6,0.9,0.6c0.1,0,0.3,0,0.4-0.1l1.9-1c0.5-0.2,0.7-0.8,0.5-1.3  C27.5,30.2,26.9,30,26.4,30.2z"/><path d="M31.5,27.7l-1.9,1c-0.5,0.2-0.7,0.8-0.5,1.3c0.2,0.4,0.5,0.6,0.9,0.6c0.1,0,0.3,0,0.4-0.1l1.9-1c0.5-0.2,0.7-0.8,0.5-1.3  C32.6,27.7,32,27.5,31.5,27.7z"/><path d="M36.7,25.2l-1.9,1c-0.5,0.2-0.7,0.8-0.5,1.3c0.2,0.4,0.5,0.6,0.9,0.6c0.1,0,0.3,0,0.4-0.1l1.9-1c0.5-0.2,0.7-0.8,0.5-1.3  S37.1,24.9,36.7,25.2z"/><path d="M43.1,23.1c-0.2-0.5-0.8-0.7-1.3-0.5l-1.9,1c-0.5,0.2-0.7,0.8-0.5,1.3c0.2,0.4,0.5,0.6,0.9,0.6c0.1,0,0.3,0,0.4-0.1l1.9-1  C43.2,24.2,43.4,23.6,43.1,23.1z"/><path d="M45.4,23c0.1,0,0.3,0,0.4-0.1l1.9-1c0.5-0.2,0.7-0.8,0.5-1.3c-0.2-0.5-0.8-0.7-1.3-0.5l-1.9,1c-0.5,0.2-0.7,0.8-0.5,1.3  C44.7,22.8,45,23,45.4,23z"/><path d="M50.5,20.5c0.1,0,0.3,0,0.4-0.1l1.9-1c0.5-0.2,0.7-0.8,0.5-1.3c-0.2-0.5-0.8-0.7-1.3-0.5l-1.9,1c-0.5,0.2-0.7,0.8-0.5,1.3  C49.8,20.3,50.2,20.5,50.5,20.5z"/><path d="M55.7,18c0.1,0,0.3,0,0.4-0.1l1.9-1c0.5-0.2,0.7-0.8,0.5-1.3c-0.2-0.5-0.8-0.7-1.3-0.5l-1.9,1c-0.5,0.2-0.7,0.8-0.5,1.3  C55,17.8,55.3,18,55.7,18z"/><path d="M30.9,65.4l-1.9,1c-0.5,0.2-0.7,0.8-0.5,1.3c0.2,0.4,0.5,0.6,0.9,0.6c0.1,0,0.3,0,0.4-0.1l1.9-1c0.5-0.2,0.7-0.8,0.5-1.3  C32,65.4,31.4,65.2,30.9,65.4z"/><path d="M36.1,62.9l-1.9,1c-0.5,0.2-0.7,0.8-0.5,1.3c0.2,0.4,0.5,0.6,0.9,0.6c0.1,0,0.3,0,0.4-0.1l1.9-1c0.5-0.2,0.7-0.8,0.5-1.3  C37.2,62.9,36.6,62.7,36.1,62.9z"/><path d="M65.3,50.7c0.1,0,0.3,0,0.4-0.1l1.9-1c0.5-0.2,0.7-0.8,0.5-1.3c-0.2-0.5-0.8-0.7-1.3-0.5l-1.9,1c-0.5,0.2-0.7,0.8-0.5,1.3  C64.6,50.5,65,50.7,65.3,50.7z"/><path d="M70.5,48.2c0.1,0,0.3,0,0.4-0.1l1.9-1c0.5-0.2,0.7-0.8,0.5-1.3c-0.2-0.5-0.8-0.7-1.3-0.5l-1.9,1c-0.5,0.2-0.7,0.8-0.5,1.3  C69.7,48,70.1,48.2,70.5,48.2z"/><path d="M86.7,58.9l-17-4.6l6.3-3.2c1.2-0.6,2-1.5,2.4-2.8c0.4-1.2,0.3-2.5-0.2-3.7l-4.8-9.8l0.4-0.2c0.7-0.3,1.2-0.9,1.4-1.6  c0.2-0.7,0.2-1.5-0.1-2.1l-4-8.1c-0.3-0.7-0.9-1.2-1.6-1.4c-0.7-0.2-1.5-0.2-2.1,0.1l-0.4,0.2l-4.4-9c-1.2-2.4-4.1-3.4-6.4-2.2  L11.6,32.3c-1.2,0.6-2,1.5-2.4,2.8c-0.4,1.2-0.3,2.5,0.2,3.7l15.7,32c0.8,1.7,2.5,2.7,4.3,2.7c0.7,0,1.4-0.2,2.1-0.5l5.6-2.8  l-0.7,2.7c-0.4,1.3-0.2,2.7,0.5,3.9c0.7,1.2,1.8,2.1,3.1,2.4l38.4,10.4c0.4,0.1,0.9,0.2,1.4,0.2c0.9,0,1.8-0.2,2.6-0.7  c1.2-0.7,2.1-1.8,2.4-3.1l5.6-20.7c0.4-1.3,0.2-2.7-0.5-3.9C89.1,60.1,88,59.3,86.7,58.9z M88.1,62.3c0.4,0.7,0.5,1.6,0.3,2.4  L88.3,65L43.8,52.9l0.1-0.3c0.2-0.8,0.8-1.5,1.5-1.9c0.5-0.3,1-0.4,1.6-0.4c0.3,0,0.6,0,0.8,0.1l38.4,10.4  C87,61.1,87.7,61.6,88.1,62.3z M43.3,54.9L87.8,67l-1,3.5L42.3,58.4L43.3,54.9z M68.5,23.3c0.1,0,0.2,0,0.3,0  c0.2,0.1,0.4,0.2,0.5,0.4l4,8.1c0.1,0.2,0.1,0.4,0,0.6c-0.1,0.2-0.2,0.4-0.4,0.5l-18.4,9c0,0,0,0,0,0c-0.2,0.1-0.4,0.1-0.6,0  c-0.2-0.1-0.4-0.2-0.5-0.4l-4-8.1c-0.2-0.4,0-0.9,0.4-1.1L66.9,24c0,0,0,0,0,0s0,0,0,0l1.3-0.6C68.3,23.3,68.4,23.3,68.5,23.3z   M30.6,71.1c-0.7,0.3-1.4,0.4-2.1,0.1c-0.7-0.2-1.3-0.7-1.6-1.4l-15.7-32c-0.3-0.7-0.4-1.4-0.1-2.1c0.2-0.7,0.7-1.3,1.4-1.6  l44.5-21.8c1.4-0.7,3.1-0.1,3.8,1.3l4.4,9l-16.3,8c-1.4,0.7-2,2.4-1.3,3.8l4,8.1c0.3,0.7,0.9,1.2,1.6,1.4C53.4,44,53.7,44,54,44  c0.4,0,0.8-0.1,1.2-0.3l16.3-8l4.8,9.8c0.3,0.7,0.4,1.4,0.1,2.1c-0.2,0.7-0.7,1.3-1.4,1.6l-8.2,4.2l-4.5-1.2l0.3-0.1  c0.5-0.2,0.7-0.8,0.5-1.3s-0.8-0.7-1.3-0.5l-1.9,1c-0.1,0.1-0.2,0.1-0.3,0.2l-11.2-3c-1.3-0.4-2.7-0.2-3.9,0.5  c-1.2,0.7-2.1,1.8-2.4,3.1l-4.2,15.4L30.6,71.1z M82.8,85.5c-0.2,0.8-0.8,1.5-1.5,1.9c-0.7,0.4-1.6,0.5-2.4,0.3L40.5,77.3  c-0.8-0.2-1.5-0.8-1.9-1.5c-0.4-0.7-0.5-1.6-0.3-2.4l3.5-13l44.5,12.1L82.8,85.5z"/><path d="M46.8,70.4l-2.1-0.6c-0.5-0.1-1.1,0.2-1.2,0.7c-0.1,0.5,0.2,1.1,0.7,1.2l2.1,0.6c0.1,0,0.2,0,0.3,0c0.4,0,0.8-0.3,1-0.7  C47.6,71.1,47.3,70.6,46.8,70.4z"/><path d="M51.9,71.8l-2.1-0.6c-0.5-0.1-1.1,0.2-1.2,0.7c-0.1,0.5,0.2,1.1,0.7,1.2l2.1,0.6c0.1,0,0.2,0,0.3,0c0.4,0,0.8-0.3,1-0.7  C52.7,72.5,52.4,72,51.9,71.8z"/><path d="M56.9,73.2l-2.1-0.6c-0.5-0.1-1.1,0.2-1.2,0.7c-0.1,0.5,0.2,1.1,0.7,1.2l2.1,0.6c0.1,0,0.2,0,0.3,0c0.4,0,0.8-0.3,1-0.7  C57.8,73.9,57.5,73.3,56.9,73.2z"/><path d="M62,74.6L60,74c-0.5-0.1-1.1,0.2-1.2,0.7c-0.1,0.5,0.2,1.1,0.7,1.2l2.1,0.6c0.1,0,0.2,0,0.3,0c0.4,0,0.8-0.3,1-0.7  C62.9,75.3,62.6,74.7,62,74.6z"/><path d="M76.9,75.5c-0.5-0.1-1-0.2-1.5-0.1c-0.4-0.3-0.9-0.5-1.4-0.7c-1-0.3-2.1-0.1-3,0.4c-0.9,0.5-1.6,1.4-1.9,2.4  c-0.6,2.1,0.7,4.3,2.8,4.9c0.3,0.1,0.7,0.1,1.1,0.1c0.2,0,0.3,0,0.5,0c0.4,0.3,0.9,0.5,1.4,0.7c0.4,0.1,0.7,0.1,1,0.1  c1.8,0,3.4-1.2,3.9-3C80.3,78.3,79.1,76.1,76.9,75.5z M74,78.9c0.1-0.5,0.4-0.9,0.8-1.1c0.2,0.4,0.3,0.9,0.1,1.4  c-0.1,0.5-0.4,0.9-0.8,1.1C73.9,79.8,73.8,79.3,74,78.9z M71.1,78.1c0.1-0.5,0.5-1,0.9-1.2c0.3-0.2,0.6-0.3,1-0.3c0,0,0,0,0.1,0  c-0.5,0.5-0.8,1.1-1,1.7c-0.2,0.7-0.2,1.4,0,2C71.2,79.9,70.8,79,71.1,78.1z M77.8,79.9c-0.2,0.9-1.1,1.5-2,1.5  c0.5-0.5,0.8-1.1,1-1.7c0.2-0.7,0.2-1.4,0-2C77.7,78.1,78.1,79,77.8,79.9z"/></svg>