<svg xmlns="http://www.w3.org/2000/svg" fill="#1c3ed3" viewBox="0 0 64 80" x="0px" y="0px"><title>18-Education</title><g data-name="18-Education"><path d="M49.93,14.65l0-.09a1,1,0,0,0-.15-.22l-.05-.06a1,1,0,0,0-.26-.18l-17-8a1,1,0,0,0-.85,0l-17,8a1,1,0,0,0,0,1.81L19,18v9a1,1,0,0,0,.55.89l12,6a1,1,0,0,0,.86,0l11-5A1,1,0,0,0,44,28V18.46l4-1.88V20H47a1,1,0,0,0-1,1v6a1,1,0,0,0,1,1h4a1,1,0,0,0,1-1V21a1,1,0,0,0-1-1H50V15A1,1,0,0,0,49.93,14.65ZM42,27.36,32,31.9,21,26.38V18.93l10,4.71V29h2V23.64l9-4.24ZM30,13v4h2V16H44.53L32,21.89,17.35,15,32,8.11,44.53,14H32V13ZM50,26H48V22h2Z"/><path d="M32,0A32,32,0,0,0,0,32H2A30,30,0,1,1,32,62v2A32,32,0,0,0,32,0Z"/><rect x="56" y="30" width="2" height="2"/><rect x="6" y="30" width="2" height="2"/><path d="M41.9,44c-.21,1.19-.86,3-2.9,3H28v2H39c4,0,5-3.92,5-6a1,1,0,0,0-1-1H33V39.62L48.24,32H54V30H48a1,1,0,0,0-.45.11L32,37.88,16.45,30.11A1,1,0,0,0,16,30H10v2h5.76L31,39.62V42H18a1,1,0,0,0-.71.29l-12,12,1.41,1.41L18.41,44Z"/><path d="M43.71,56.71l12-12c3.72-3.72,1.63-7.79,0-9.41a1,1,0,0,0-1.41,0l-9,9,1.41,1.41,8.21-8.21a4.26,4.26,0,0,1-.63,5.8L42.59,55H22a1,1,0,0,0-.71.29l-7,7,1.41,1.41L22.41,57H43A1,1,0,0,0,43.71,56.71Z"/><rect x="24" y="47" width="2" height="2"/></g></svg>