<svg xmlns="http://www.w3.org/2000/svg" viewBox="0 0 100 125" x="0px" y="0px" fill="#1c3ed3"><title>•SET5-v2</title><path d="M89,78.74a6.36,6.36,0,0,0-.87-1.33,12.34,12.34,0,0,0-8.73-19.65c-1.48-3.09-5.09-5.44-7.2-6.41a28.33,28.33,0,0,0-7.47-2.05l-.5-.08a14.64,14.64,0,0,1-4.12-1c-2.45-1.21-3.63-2.93-3.56-5.11a18.35,18.35,0,0,0,7.81-15.35c0-9.82-7.08-17.81-15.78-17.81A14.1,14.1,0,0,0,42,11.55,9.61,9.61,0,1,0,32.82,27c0,.23,0,.47,0,.69,0,7.23,3.83,13.45,9.32,16.24a4.55,4.55,0,0,1-.47,3.15c-1,1.45-3.2,1.88-4.84,2.2-.46.09-.87.17-1.21.26-.83.21-1.69.35-2.6.5a19.08,19.08,0,0,0-5.24,1.41c-4.49,2.14-6.61,6.87-8.4,11.53C17,69.25,14.24,76.34,13.55,83.6a4.89,4.89,0,0,0,4.25,5.28C34.73,91,52.58,92,66.92,92.78c.47,0,1,.06,1.54.06a8,8,0,0,0,4.1-.94,5.05,5.05,0,0,0,2.37-3.47,3.79,3.79,0,0,0-.85-3.17,8.8,8.8,0,0,0-3.67-2.14,8.42,8.42,0,0,1-1.94-.89,5.75,5.75,0,0,1-.19-.79c-.26-1.3-.81-4-4.11-4.34a5.81,5.81,0,0,0-3.71,1.29l-.53.33A8.26,8.26,0,0,1,55,80a45.56,45.56,0,0,1-11.6-2.29c-4.11-1.19-8.33-2.41-13.09-2.31.09-.41.18-.8.28-1.2,2.47-1.63,7.51-3.4,10.23-4.35l1.42-.5c6.6-2.41,17.88-2.43,24.24-2.37a9.21,9.21,0,0,0-.35,4,1.7,1.7,0,0,0,3.36-.5,7.54,7.54,0,0,1,2.1-5.81C73.42,62.5,76,61.1,78.22,61.1a8.94,8.94,0,0,1,7.13,14.36,12.61,12.61,0,0,0-2.71-.52c-.93-.11-2.87-.33-4.18,1.06h0a4.72,4.72,0,0,0-1.08,3,7.65,7.65,0,0,0,.25,3c.82,2.44,3.26,3.59,4.72,4.27a6.81,6.81,0,0,0,2.9.83,3.88,3.88,0,0,0,.82-.09,4.73,4.73,0,0,0,3.45-3.73,6.8,6.8,0,0,0,.06-2.77A6.56,6.56,0,0,0,89,78.74Zm-52.8-51c0-.5,0-1.05.1-1.66a18.3,18.3,0,0,1,1.07-3.25,11.43,11.43,0,0,1,1.46-2.33,1.7,1.7,0,1,0-2.55-2.25,14.12,14.12,0,0,0-2,3.1,16.06,16.06,0,0,0-.88,2.34,6.21,6.21,0,1,1,6.52-9,1.71,1.71,0,0,0,1.09.84,1.68,1.68,0,0,0,1.36-.24,11.06,11.06,0,0,1,6.18-1.94C55.42,13.3,61,19.77,61,27.71S55.42,42.13,48.59,42.13,36.21,35.66,36.21,27.71ZM69,62.44a11.93,11.93,0,0,0-.89,1.16,2.85,2.85,0,0,0-.29,0c-9.91-.12-20,.1-26.75,2.55l-1.38.49c-2.06.72-5,1.76-7.61,2.94.77-1.9,1.67-3.77,2.72-5.9a1.7,1.7,0,0,0-1.32-3.08,2.67,2.67,0,0,0-1.71,1.54C29.33,67,27.41,70.94,26.56,77c0,0,0,0,0,0v.18a1,1,0,0,0,0,.17v0s0,.08,0,.12,0,.12,0,.17l.06.16.06.15.09.15.09.12.11.13.12.11.13.09a.71.71,0,0,0,.14.1l.15.07.15.06.18,0,.11,0h.43c5-.56,9.37.71,14,2a48.59,48.59,0,0,0,12.45,2.42,11.61,11.61,0,0,0,6.81-1.73l.63-.4a4.21,4.21,0,0,1,1.52-.75c.69.07.83.18,1.11,1.62a4.26,4.26,0,0,0,1.31,2.7,10.51,10.51,0,0,0,3,1.5,6.3,6.3,0,0,1,2.3,1.19.51.51,0,0,1,.06.39A1.67,1.67,0,0,1,70.84,89a6.85,6.85,0,0,1-3.73.43c-14.29-.81-32.07-1.82-48.9-3.88a1.48,1.48,0,0,1-1.28-1.59c.65-6.79,3.17-13.35,5.61-19.7,1.61-4.18,3.33-8.08,6.69-9.68a16,16,0,0,1,4.34-1.12c.94-.16,1.91-.32,2.88-.57l1-.21c2.11-.41,5.29-1,7-3.66a7.09,7.09,0,0,0,1.11-3.78,13.87,13.87,0,0,0,7.65-.47c.47,2.73,2.3,5,5.35,6.49a17.4,17.4,0,0,0,5.1,1.36l.49.07a25.54,25.54,0,0,1,6.59,1.79,14,14,0,0,1,4.81,3.65A13.94,13.94,0,0,0,69,62.44Zm17.23,20c-.14.58-.5,1.09-.83,1.16a3.51,3.51,0,0,1-1.58-.48c-1.31-.62-2.62-1.3-3-2.28a4.72,4.72,0,0,1-.08-1.66,2.25,2.25,0,0,1,.16-.87c.08,0,.35-.14,1.33,0a7.06,7.06,0,0,1,2.42.53A3,3,0,0,1,86,80.22a3.49,3.49,0,0,1,.29.86A3.61,3.61,0,0,1,86.21,82.47Z"/></svg>