<svg xmlns="http://www.w3.org/2000/svg" xmlns:xlink="http://www.w3.org/1999/xlink" version="1.1" x="0px" y="0px" viewBox="0 0 100 125" enable-background="new 0 0 100 100" fill="#1c3ed3" xml:space="preserve"><path d="M94.4,30.8l-0.1-0.1c-2-1-4.3-1.6-6.5-1.6c-2.9,0-5.6,0.9-7.9,2.4L81,23c0.2-1.3-0.7-2.5-2-2.6c-1.3-0.2-2.5,0.7-2.6,2  l-0.1,0.9c-2.6-2.5-6.1-3.9-9.8-3.9c-2,0-4,0.4-5.8,1.3l-0.1,0c-1.2,0.5-1.7,1.9-1.2,3.1l0,0.1c2.3,5.1,7.4,8.4,13,8.4c0,0,0,0,0,0  c0.9,0,1.8-0.1,2.7-0.3L74,40.3c-0.3-0.3-0.7-0.6-1-0.9c-2.6-2.5-5.5-5.3-9.4-5.1c-2.9,0.1-5.7,1.9-8.6,5.3c-1.9,2.2-3,4.6-3.8,6.9  c-0.4-0.4-0.8-0.8-1.3-1.2c1.1-5.9-2.2-10.3-4.8-14c-3-4.1-2.9-9.4-2.4-14.2c0.1-1-0.4-1.9-1.2-2.3c-0.8-0.5-1.9-0.3-2.6,0.3  c-5.1,4.3-8.4,11.1-8.8,17.7C24.6,29.7,19.5,26.2,16,21c-0.6-0.8-1.6-1.2-2.6-1c-1,0.3-1.7,1.1-1.7,2.1C10.7,38.5,15,50.3,25.1,58.4  c-4.8-0.6-9.7-0.4-14.6,2c-9.4,4.6-5.9,13.3-4.1,18c1.4,3.4,2.4,6.1,4.9,6.8c0.3,0.1,0.6,0.1,1,0.1c1.8,0,3.5-1.2,5.1-2.6  c5.1-4.4,12.1-4,19.5-3.6c10.9,0.6,23.2,1.2,26.6-16.3c0,0,0,0,0,0c1-5.6,5.1-9.6,9.1-12.3l-0.1,0.4c-0.2,1.3,0.7,2.5,2,2.6  c0.1,0,0.2,0,0.3,0c1.2,0,2.2-0.9,2.3-2l0.5-3.9c0.1,0,0.2-0.1,0.3-0.1c0.9-0.4,1.4-1.3,1.4-2.2c0-0.8-0.5-1.5-1.1-1.9l0.3-2.3  c1.3,0.4,2.7,0.6,4.1,0.6c0,0,0,0,0,0c5.3,0,10.2-2.9,12.6-7.7l0.1-0.1C96,32.8,95.6,31.4,94.4,30.8z M72.4,27.6L72.4,27.6  c-2.8,0-5.5-1.3-7.3-3.4c0.5-0.1,0.9-0.1,1.4-0.1c2.8,0,5.5,1.3,7.3,3.4C73.3,27.5,72.9,27.6,72.4,27.6z M37.8,23.6  c0.2,3.6,1.1,7.3,3.5,10.6c2.1,2.8,3.6,5.1,4,7.6c-3.4-2.4-7-4.3-10.5-6.3c0-0.1,0-0.2,0-0.3C34.5,31.4,35.7,27.2,37.8,23.6z   M59,61.9C56.4,75.4,48,75,37.3,74.4c-7.7-0.4-16.3-0.8-22.8,4.8c-1,0.9-1.6,1.2-1.9,1.4c-0.5-0.7-1.3-2.6-1.7-3.8  c-2.9-7.3-2.5-10,1.8-12.1c2.7-1.3,5.4-1.8,8.3-1.8c3.7,0,7.5,0.8,11.4,1.6c1.9,0.4,3.8,0.8,5.8,1.1c1.2,0.2,2.3-0.5,2.6-1.7  c0.3-1.2-0.3-2.4-1.4-2.8C24.1,55,16.8,44.8,16.3,28.6c4.7,4.6,10.5,7.8,16.2,10.9c4.7,2.6,9.2,5.1,13.1,8.3  c0.1,0.1,0.3,0.2,0.4,0.3c1.7,1.4,3.2,3,4.6,4.8c0.6,0.8,1.6,1.1,2.5,0.8c0.9-0.2,1.6-1,1.7-2c0.5-3.7,1.8-6.9,3.7-9.2  c2-2.4,3.8-3.6,5.3-3.7c1.9-0.1,3.9,1.8,5.9,3.8c0.8,0.8,1.7,1.6,2.6,2.4C67,48.2,60.6,53.6,59,61.9z M82.8,37  c-0.6,0-1.3-0.1-1.9-0.2c1.8-1.9,4.3-3,7-3c0.6,0,1.3,0.1,1.9,0.2C87.9,35.9,85.4,37,82.8,37z"/></svg>