<svg xmlns="http://www.w3.org/2000/svg" viewBox="0 0 48 60" x="0px" y="0px" fill="#1c3ed3"><title>water, nature, oil</title><g><path d="M16,12C14.22,12,4,22.72,4,30a12,12,0,0,0,24,0C28,22.72,17.78,12,16,12Zm0,28A10,10,0,0,1,6,30c0-5.94,8.14-14.52,10-15.88C17.86,15.48,26,24.06,26,30A10,10,0,0,1,16,40Z"/><path d="M36,6c-1.85,0-8,6.66-8,12a8,8,0,0,0,16,0C44,12.66,37.85,6,36,6Zm0,18a6,6,0,0,1-6-6c0-4.15,4.68-9.11,6-9.93,1.32.82,6,5.78,6,9.93A6,6,0,0,1,36,24Z"/><path d="M16,35a1,1,0,0,0,1,1,5.27,5.27,0,0,0,5-5,1,1,0,0,0-2,0,3.29,3.29,0,0,1-3,3A1,1,0,0,0,16,35Z"/><path d="M39,18a1,1,0,0,0-1,1,1.17,1.17,0,0,1-1,1,1,1,0,0,0,0,2,3.16,3.16,0,0,0,3-3A1,1,0,0,0,39,18Z"/></g></svg>